<?xml version="1.0" encoding="UTF-8"?>
<svg width="41px" height="35px" viewBox="0 0 41 35" version="1.1" xmlns="http://www.w3.org/2000/svg" xmlns:xlink="http://www.w3.org/1999/xlink">
    <!-- Generator: Sketch 57.1 (83088) - https://sketch.com -->
    <title>noun_complain_1146132</title>
    <desc>Created with Sketch.</desc>
    <g id="Desktop" stroke="none" stroke-width="1" fill="none" fill-rule="evenodd">
        <g id="00_HOMEPAGE" transform="translate(-149.000000, -1114.000000)" fill="#000000" fill-rule="nonzero">
            <g id="Group-14" transform="translate(81.000000, 1076.000000)">
                <g id="noun_complain_1146132" transform="translate(68.000000, 38.000000)">
                    <g id="Group">
                        <path d="M20.3228658,0.115124019 C9.24150649,0.115124019 0.228114552,7.28327786 0.228114552,16.0912684 C0.228114552,19.55227 1.58587945,22.8398273 4.09401998,25.5282135 L6.58861672,28.5818838 C7.09989477,29.2090863 8.00817516,29.2923046 8.6167992,28.7570801 C9.22457676,28.2271115 9.29991409,27.2863077 8.78778954,26.6573532 L6.22970629,23.5309765 C4.18628705,21.3375196 3.10701632,18.7656389 3.10701632,16.0903925 C3.10701632,8.92399058 10.8303623,3.09345997 20.3228658,3.09345997 C29.8179088,3.09345997 37.5429477,8.92399058 37.5429477,16.0903925 C37.5429477,23.2567943 29.8179088,29.085573 20.3228658,29.085573 C18.3530909,29.085573 16.418022,28.8341664 14.5735271,28.3383611 L13.9217323,28.1631648 L8.49744456,32.1926782 C7.84903563,32.6727159 7.70259341,33.6021319 8.16477522,34.2713815 C8.44580886,34.6769608 8.88767499,34.8933281 9.33715951,34.8933281 C9.62835098,34.8933281 9.92123543,34.803102 10.1751815,34.6130141 L14.5125801,31.3929074 C16.3909344,31.8396578 18.3420866,32.0674129 20.3220193,32.0674129 C31.4059181,32.0674129 40.421003,24.901011 40.421003,16.0903925 C40.4218495,7.28327786 31.4067646,0.115124019 20.3228658,0.115124019 Z" id="Path"></path>
                        <path d="M27.3097682,18.8961601 C27.999655,18.8961601 28.6091255,18.3819592 28.7293267,17.6540188 L29.898325,10.5279121 C30.030377,9.71762951 29.5030157,8.94851805 28.7191688,8.81011303 C27.9395544,8.68659969 27.1912601,9.21919623 27.0592081,10.0312308 L25.8893633,17.1573375 C25.7573114,17.9676201 26.2846727,18.7367316 27.069366,18.8751366 C27.1497822,18.8891523 27.2301985,18.8961601 27.3097682,18.8961601 Z" id="Path"></path>
                        <path d="M25.038644,22.3194945 L25.0318721,22.3641695 C24.909978,23.178832 25.4525761,23.9164082 26.2355764,24.0443014 C26.3100673,24.0565651 26.3828651,24.061821 26.45397,24.061821 C27.1548611,24.061821 27.775336,23.5160848 27.8862258,22.7785086 C28.0089664,21.9647221 27.4714472,21.2034945 26.6850609,21.0756013 C25.9046001,20.9573438 25.1622311,21.5083359 25.038644,22.3194945 Z" id="Path"></path>
                        <path d="M10.1125415,16.0991523 C9.3185368,16.0991523 8.67351382,16.764022 8.67351382,17.5883203 C8.67351382,18.4117425 9.3185368,19.0783642 10.1125415,19.0783642 L10.8997742,19.0783642 L10.5840346,20.7576201 C10.4308205,21.5643987 10.9395591,22.3475259 11.72002,22.5052025 C11.81398,22.5244741 11.9062471,22.5332339 11.9976677,22.5332339 C12.6723177,22.5332339 13.2750163,22.0400565 13.4087612,21.3287598 L13.8328511,19.0783642 L16.8920546,19.0783642 L16.576315,20.7576201 C16.4256404,21.5643987 16.934379,22.3475259 17.7148398,22.5052025 C17.8062604,22.5244741 17.9002204,22.5332339 17.9924875,22.5332339 C18.6671375,22.5332339 19.2689897,22.0400565 19.4027346,21.3287598 L19.8268245,19.0783642 L21.1761245,19.0783642 C21.9726687,19.0783642 22.6159987,18.4117425 22.6159987,17.5883203 C22.6159987,16.764022 21.9726687,16.0991523 21.1761245,16.0991523 L20.3888918,16.0991523 L20.7037849,14.4198964 L22.0522384,14.4198964 C22.8479361,14.4198964 23.4921126,13.7532747 23.4921126,12.9298524 C23.4921126,12.1055542 22.8479361,11.4398085 22.0522384,11.4398085 L21.2666986,11.4398085 L21.5595831,9.87705808 C21.7119507,9.07027943 21.2023656,8.28715228 20.4227512,8.13122763 C19.6456763,7.97179906 18.8846846,8.5000157 18.7331635,9.30767033 L18.3310823,11.4398085 L15.2684928,11.4398085 L15.5630703,9.87705808 C15.7154379,9.07027943 15.2058528,8.28715228 14.4253919,8.13122763 C13.6449311,7.97179906 12.8890183,8.5000157 12.7366507,9.30767033 L12.3362624,11.4398085 L10.9869624,11.4398085 C10.1921112,11.4398085 9.54708825,12.1055542 9.54708825,12.9298524 C9.54708825,13.7523987 10.1921112,14.4198964 10.9869624,14.4198964 L11.7758881,14.4198964 L11.4601485,16.0991523 L10.1125415,16.0991523 L10.1125415,16.0991523 Z M14.7072721,14.4198964 L17.7698615,14.4198964 L17.4541219,16.0991523 L14.392379,16.0991523 L14.7072721,14.4198964 Z" id="Shape"></path>
                    </g>
                </g>
            </g>
        </g>
    </g>
</svg>