<?xml version="1.0" encoding="UTF-8"?>
<svg width="42px" height="43px" viewBox="0 0 42 43" version="1.1" xmlns="http://www.w3.org/2000/svg" xmlns:xlink="http://www.w3.org/1999/xlink">
    <!-- Generator: Sketch 57.1 (83088) - https://sketch.com -->
    <title>Group 7</title>
    <desc>Created with Sketch.</desc>
    <defs>
        <rect id="path-1" x="2.37735849" y="2.43396226" width="37.245283" height="38.1320755" rx="18.6226415"></rect>
        <mask id="mask-2" maskContentUnits="userSpaceOnUse" maskUnits="objectBoundingBox" x="0" y="0" width="37.245283" height="38.1320755" fill="white">
            <use xlink:href="#path-1"></use>
        </mask>
    </defs>
    <g id="Desktop" stroke="none" stroke-width="1" fill="none" fill-rule="evenodd">
        <g id="02_Styles_Typo" transform="translate(-439.000000, -1934.000000)">
            <g id="Group-8" transform="translate(406.000000, 1898.000000)">
                <g id="Group-7" transform="translate(33.000000, 36.000000)">
                    <g id="Group-6">
                        <g id="Group-12">
                            <rect id="Rectangle" fill="#160F3E" x="0" y="0" width="42" height="43" rx="21"></rect>
                            <use id="Rectangle" stroke="#FFFFFF" mask="url(#mask-2)" stroke-width="2" stroke-linecap="round" stroke-linejoin="round" stroke-dasharray="2,5" xlink:href="#path-1"></use>
                            <path d="M13.0001,20.4375 C13.0001,20.720125 12.8951052,20.99 12.7071146,21.1886875 L12.4141293,21.5 L12.7071146,21.8113125 C12.8951052,22.01 13.0001,22.279875 13.0001,22.5625 L13.0001,26.8125 C13.0001,27.399 13.4480776,27.875 14.00005,27.875 C14.5530223,27.875 15,28.3499375 15,28.9375 C15,29.5250625 14.5530223,30 14.00005,30 C12.3461327,30 11.0002,28.569875 11.0002,26.8125 L11.0002,23.002375 L10.2932353,22.2511875 C9.90225489,21.83575 9.90225489,21.16425 10.2932353,20.7488125 L11.0002,19.997625 L11.0002,16.1875 C11.0002,14.430125 12.3461327,13 14.00005,13 C14.5530223,13 15,13.4749375 15,14.0625 C15,14.6500625 14.5530223,15.125 14.00005,15.125 C13.4480776,15.125 13.0001,15.601 13.0001,16.1875 L13.0001,20.4375 Z M31.7067647,20.7488125 C32.0977451,21.16425 32.0977451,21.83575 31.7067647,22.2511875 L30.9998,23.002375 L30.9998,26.8125 C30.9998,28.569875 29.6538673,30 27.99995,30 C27.4469777,30 27,29.5250625 27,28.9375 C27,28.3499375 27.4469777,27.875 27.99995,27.875 C28.5519224,27.875 28.9999,27.399 28.9999,26.8125 L28.9999,22.5625 C28.9999,22.279875 29.1048948,22.01 29.2928854,21.8113125 L29.5858707,21.5 L29.2928854,21.1886875 C29.1048948,20.99 28.9999,20.720125 28.9999,20.4375 L28.9999,16.1875 C28.9999,15.601 28.5519224,15.125 27.99995,15.125 C27.4469777,15.125 27,14.6500625 27,14.0625 C27,13.4749375 27.4469777,13 27.99995,13 C29.6538673,13 30.9998,14.430125 30.9998,16.1875 L30.9998,19.997625 L31.7067647,20.7488125 Z M24.2655764,15.0783304 C24.8639487,15.3003895 25.1555532,15.9308205 24.9164375,16.4865097 L20.2507666,27.3186579 C20.067639,27.7421949 19.629066,28 19.1671645,28 C19.0225287,28 18.8755601,27.9750861 18.7344236,27.9220085 C18.1360513,27.6999495 17.8444468,27.0695185 18.0835625,26.5149125 L22.7492334,15.6827643 C22.988349,15.1249087 23.6707034,14.8551882 24.2655764,15.0783304 Z" id="Shape" fill="#FFFFFF"></path>
                        </g>
                    </g>
                </g>
            </g>
        </g>
    </g>
</svg>