<?xml version="1.0" encoding="UTF-8"?>
<svg width="39px" height="42px" viewBox="0 0 39 42" version="1.1" xmlns="http://www.w3.org/2000/svg" xmlns:xlink="http://www.w3.org/1999/xlink">
    <!-- Generator: Sketch 57.1 (83088) - https://sketch.com -->
    <title>Fill 2</title>
    <desc>Created with Sketch.</desc>
    <defs>
        <path d="M22,39.9 C22,41.0592 21.106,42 20,42 C18.896,42 18,41.0592 18,39.9 C18,38.7408 18.896,37.8 20,37.8 C21.106,37.8 22,38.7408 22,39.9 M38.9878548,23.3158584 C38.2336915,30.3783145 34.0938597,36.4971613 27.9153674,39.6807987 C27.6290273,39.8290205 27.320506,39.9 27.0200506,39.9 C26.2800027,39.9 25.5641526,39.4762109 25.2112687,38.7434524 C24.7152149,37.710075 25.1225437,36.4574963 26.1207009,35.943939 C31.0630914,33.3949414 34.3741503,28.5036217 34.9770776,22.8565795 C35.1000828,21.7125577 36.0942071,20.8942063 37.2032707,21.0111136 C38.3123342,21.1384591 39.1088435,22.1697489 38.9878548,23.3158584 M13.7887313,38.743368 C13.4358474,39.47618 12.7199973,39.9 11.9799495,39.9 C11.6794941,39.9 11.3709728,39.8311031 11.0846328,39.6807827 C4.90815718,36.4990008 0.768325523,30.3817954 0.0121458493,23.3167364 C-0.108842899,22.1705433 0.687666358,21.1391783 1.7947134,21.0118235 C2.94612298,20.890732 3.89991761,21.7133187 4.02292284,22.857424 C4.62786658,28.5048781 7.93690883,33.3965547 12.8792992,35.9436504 C13.8774563,36.4572452 14.2847851,37.7099152 13.7887313,38.743368 M0.268354538,13.65 C0.638183908,12.9759 1.30987401,12.6 2.00155488,12.6 C2.34139809,12.6 2.68523944,12.6903 2.99909464,12.8814 C3.95665284,13.461 4.28450158,14.7441 3.73075707,15.75 C3.3609277,16.4241 2.6892376,16.8 1.99755673,16.8 C1.6597126,16.8 1.31387216,16.7097 1.00001697,16.5186 C0.0424587614,15.939 -0.283390899,14.6538 0.268354538,13.65 M35.2683545,15.75 C34.7166091,14.7441 35.0424588,13.461 36.000017,12.8814 C36.3138722,12.6903 36.6597126,12.6 36.9975567,12.6 C37.6892376,12.6 38.3609277,12.9759 38.7307571,13.65 C39.2845016,14.6538 38.9566528,15.939 37.9990946,16.5186 C37.6852394,16.7097 37.3413981,16.8 37.0015549,16.8 C36.309874,16.8 35.6381839,16.4241 35.2683545,15.75 M7.43477652,7.62067291 C6.75652615,6.71769982 6.88553054,5.39473924 7.72601372,4.66606096 C11.1895862,1.65685063 15.5503257,0 19.9990227,0 C24.4496743,0 28.8104138,1.65685063 32.2739863,4.66606096 C33.1144695,5.39473924 33.2434739,6.71769982 32.5652235,7.62067291 C32.1782103,8.13305764 31.6133274,8.39974969 31.0425807,8.39974969 C30.6125661,8.39974969 30.1786422,8.24645426 29.8150843,7.93356359 C27.0043522,5.49133636 23.6111457,4.19987485 19.9990227,4.19987485 C16.3888543,4.19987485 12.9956478,5.49133636 10.1849157,7.93356359 C9.34247787,8.66224187 8.1130269,8.52154606 7.43477652,7.62067291 M26,21 C26,24.4734 23.308,27.3 20,27.3 C16.692,27.3 14,24.4734 14,21 C14,17.5266 16.692,14.7 20,14.7 C23.308,14.7 26,17.5266 26,21 M10,21 C10,26.7897 14.2617,31.5 19.5,31.5 C24.7383,31.5 29,26.7897 29,21 C29,15.2103 24.7383,10.5 19.5,10.5 C14.2617,10.5 10,15.2103 10,21" id="path-1"></path>
    </defs>
    <g id="Desktop" stroke="none" stroke-width="1" fill="none" fill-rule="evenodd">
        <g id="00_HOMEPAGE" transform="translate(-540.000000, -514.000000)">
            <g id="Group-8" transform="translate(131.000000, 501.000000)">
                <g id="Group-11" transform="translate(403.000000, 0.000000)">
                    <g id="Fill-2" transform="translate(6.000000, 13.000000)">
                        <mask id="mask-2" fill="white">
                            <use xlink:href="#path-1"></use>
                        </mask>
                        <use id="Fill-1" fill="#160F3E" xlink:href="#path-1"></use>
                    </g>
                </g>
            </g>
        </g>
    </g>
</svg>