<?xml version="1.0" encoding="UTF-8"?>
<svg width="52px" height="49px" viewBox="0 0 52 49" version="1.1" xmlns="http://www.w3.org/2000/svg" xmlns:xlink="http://www.w3.org/1999/xlink">
    <!-- Generator: Sketch 57.1 (83088) - https://sketch.com -->
    <title>Icon</title>
    <desc>Created with Sketch.</desc>
    <defs>
        <path d="M50.9358151,38.0638298 C48.7432606,34.1966479 45.3748395,31.8690192 43,30.6198097 C47.7856226,24.0785387 54.8536585,18.1179549 65,17.212766 C64.0474968,26.8111845 57.8035944,33.5134865 50.9358151,38.0638298 M41.2202753,42.2340426 C40.1714643,40.4258131 38.7271589,38.9141438 37,37.8171338 C37.5657071,36.5364139 38.1764706,35.2320742 38.8873592,33.893617 C40.6320401,34.867279 43.3654568,36.8460962 45,40.2316056 C43.7083855,40.9848158 42.4518148,41.6356734 41.2202753,42.2340426 M31,55.787234 L23,55.787234 L23,48.4893617 C23,44.4658014 26.5893333,41.1914894 31,41.1914894 C35.4133333,41.1914894 39,44.4658014 39,48.4893617 C39,52.5153546 35.4133333,55.787234 31,55.787234 M70,14.45 C70,13.0976 68.8378,12 67.4,12 C48.3888,12 37.9628,26.06545 32.7966,36.6715 C32.2038,36.5931 31.6162,36.5 31,36.5 C23.8344,36.5 18,41.99535 18,48.75 L18,58.55 C18,59.90485 19.1648,61 20.6,61 L31,61 C38.1682,61 44,55.50465 44,48.75 C44,48.1718 43.9012,47.61565 43.8206,47.0595 C55.0734,42.19135 70,32.36685 70,14.45" id="path-1"></path>
    </defs>
    <g id="Desktop" stroke="none" stroke-width="1" fill="none" fill-rule="evenodd">
        <g id="00_HOMEPAGE" transform="translate(-149.000000, -515.000000)">
            <g id="Group-8" transform="translate(131.000000, 503.000000)">
                <mask id="mask-2" fill="white">
                    <use xlink:href="#path-1"></use>
                </mask>
                <use id="Icon" fill="#160F3E" xlink:href="#path-1"></use>
            </g>
        </g>
    </g>
</svg>